<svg data-v-423bf9ae="" xmlns="http://www.w3.org/2000/svg" viewBox="0 0 483.28685152447565 60" class="font"><!----><!----><!----><g data-v-423bf9ae="" id="c0c7cf93-0072-420e-a114-0e6e2618a834" fill="black" transform="matrix(6.444683506104438,0,0,6.444683506104438,-3.1579012375246407,-22.363052188984852)"><path d="M1.54 3.66L0.49 4.27L0.49 12.71L1.73 12.26L1.74 8.48L3.70 8.48L4.63 7.20L1.78 7.20L1.78 4.85L4.87 4.86L5.79 3.66L1.54 3.66ZM7.08 3.47L5.70 4.06L5.70 12.17L5.70 12.17Q5.69 12.54 5.56 12.69L5.56 12.69L9.88 12.68L11.01 11.12L11.01 11.12Q10.53 11.46 7.05 11.45L7.05 11.45L7.06 3.49L7.08 3.47ZM12.29 3.67L11.30 4.48L11.30 12.71L16.03 12.70L16.95 11.15L16.95 11.15Q15.94 11.64 12.55 11.47L12.55 11.47L12.55 8.38L14.92 8.38L15.65 7.25L12.59 7.25L12.59 4.79L15.76 4.79L16.60 3.66L12.29 3.67ZM21.98 3.58L21.98 3.58L21.98 3.58Q20.76 3.55 19.92 3.94L19.92 3.94L19.92 3.94Q19.07 4.33 18.22 5.43L18.22 5.43L18.22 5.43Q17.37 6.53 17.14 7.80L17.14 7.80L17.14 7.80Q16.91 9.07 17.32 10.00L17.32 10.00L17.32 10.00Q17.73 10.93 18.46 11.61L18.46 11.61L18.46 11.61Q19.19 12.28 20.23 12.57L20.23 12.57L20.23 12.57Q21.28 12.86 22.27 12.54L22.27 12.54L22.27 12.54Q23.26 12.22 24.68 10.55L24.68 10.55L24.54 10.48L24.54 10.48Q22.93 11.93 21.03 11.27L21.03 11.27L21.03 11.27Q19.13 10.62 18.52 8.85L18.52 8.85L18.52 8.85Q17.91 7.08 18.67 5.91L18.67 5.91L18.67 5.91Q19.43 4.74 20.66 4.72L20.66 4.72L20.66 4.72Q21.90 4.70 22.35 5.17L22.35 5.17L22.35 5.17Q22.80 5.63 22.91 5.95L22.91 5.95L24.37 5.18L24.37 5.18Q24.32 4.72 23.76 4.16L23.76 4.16L23.76 4.16Q23.21 3.60 21.98 3.58ZM29.16 3.55L28.27 3.81L24.93 12.51L25.63 12.74L26.72 9.88L30.32 9.88L31.50 12.78L32.79 12.11L29.16 3.55ZM28.46 5.33L29.74 8.59L27.24 8.59L28.46 5.33ZM41.11 3.52L41.11 3.52L41.11 3.52Q39.44 3.53 38.45 4.36L38.45 4.36L38.45 4.36Q37.45 5.20 36.98 6.06L36.98 6.06L36.98 6.06Q36.50 6.93 36.47 8.31L36.47 8.31L36.47 8.31Q36.44 9.68 37.43 11.08L37.43 11.08L37.43 11.08Q38.42 12.48 39.88 12.69L39.88 12.69L39.88 12.69Q41.33 12.91 42.56 12.12L42.56 12.12L42.56 12.12Q43.80 11.34 44.43 10.33L44.43 10.33L44.43 10.33Q45.06 9.32 45.09 7.70L45.09 7.70L45.09 7.70Q45.11 6.08 43.94 4.79L43.94 4.79L43.94 4.79Q42.77 3.51 41.11 3.52ZM40.75 4.56L40.75 4.56L40.75 4.56Q42.46 4.94 43.23 6.78L43.23 6.78L43.23 6.78Q43.99 8.61 43.75 9.81L43.75 9.81L43.75 9.81Q43.50 11.00 42.80 11.49L42.80 11.49L42.80 11.49Q42.09 11.98 40.84 11.66L40.84 11.66L40.84 11.66Q39.60 11.35 38.80 10.37L38.80 10.37L38.80 10.37Q38.01 9.39 37.77 7.89L37.77 7.89L37.77 7.89Q37.52 6.39 38.28 5.28L38.28 5.28L38.28 5.28Q39.04 4.17 40.75 4.56ZM47.43 3.50L46.20 4.09L46.20 12.71L47.43 12.16L47.43 5.83L51.26 12.76L52.81 12.13L52.81 3.55L51.60 4.14L51.59 11.03L47.43 3.50ZM55.19 3.47L53.81 4.06L53.81 12.17L53.81 12.17Q53.81 12.54 53.67 12.69L53.67 12.69L58.00 12.68L59.12 11.12L59.12 11.12Q58.65 11.46 55.17 11.45L55.17 11.45L55.17 3.49L55.19 3.47ZM61.05 3.60L59.73 4.16L59.73 12.74L61.05 12.14L61.05 3.60ZM63.59 3.50L62.35 4.09L62.35 12.71L63.58 12.16L63.58 5.83L67.42 12.76L68.96 12.13L68.96 3.55L67.75 4.14L67.74 11.03L63.59 3.50ZM70.82 3.67L69.83 4.48L69.83 12.71L74.56 12.70L75.48 11.15L75.48 11.15Q74.47 11.64 71.08 11.47L71.08 11.47L71.08 8.38L73.45 8.38L74.18 7.25L71.12 7.25L71.12 4.79L74.29 4.79L75.13 3.66L70.82 3.67Z"></path></g><!----><!----></svg>